 <svg version="1.0" xmlns="http://www.w3.org/2000/svg" width="700.000000pt" height="211.000000pt" viewBox="0 0 700.000000 211.000000" preserveAspectRatio="xMidYMid meet">
<metadata>
Created by potrace 1.12, written by Peter Selinger 2001-2015
</metadata>
<g transform="translate(0.000000,211.000000) scale(0.100000,-0.100000)" fill="#000000" stroke="none">
<path d="M272 2048 c-69 -12 -109 -35 -150 -87 -27 -34 -43 -65 -47 -94 -3
-23 -5 -402 -3 -842 l3 -800 35 -46 c19 -25 55 -59 80 -75 l45 -29 3263 -3
c3156 -2 3265 -2 3305 16 58 26 104 67 130 116 l22 41 0 815 0 815 -24 45
c-30 57 -85 105 -136 120 -44 12 -6451 21 -6523 8z m845 -348 c131 -17 256
-83 369 -195 64 -63 106 -135 145 -246 19 -54 23 -84 22 -194 0 -115 -3 -138
-27 -201 -41 -113 -74 -163 -156 -244 -154 -152 -347 -212 -561 -175 -142 25
-225 69 -329 174 -147 148 -197 279 -187 486 9 178 55 282 187 415 60 61 94
85 165 120 128 63 227 79 372 60z m850 -72 c4 -7 8 -54 8 -104 0 -102 9 -121
57 -126 38 -4 57 -30 39 -52 -15 -18 -91 -22 -121 -6 -10 5 -23 25 -28 42 -15
46 -9 223 7 242 16 19 27 20 38 4z m615 -15 c25 -30 27 -49 7 -79 -23 -35 -24
-79 -4 -118 21 -39 20 -76 -2 -76 -42 1 -63 42 -63 123 0 30 -7 60 -15 71 -20
26 -19 38 6 70 24 30 50 33 71 9z m-190 -30 c26 -24 22 -38 -14 -48 -47 -14
-47 -33 0 -41 32 -5 42 -12 55 -40 11 -23 14 -41 8 -56 -22 -57 -94 -85 -130
-49 -32 32 -27 49 17 53 46 4 50 29 6 41 -47 14 -71 82 -41 119 30 38 71 47
99 21z m432 -27 c59 -73 44 -120 -36 -114 -38 3 -43 0 -46 -19 -3 -20 1 -23
33 -23 39 0 56 -21 38 -49 -25 -40 -91 -17 -128 44 -30 53 -31 75 -4 130 21
42 60 74 90 75 9 0 33 -20 53 -44z m255 10 c37 -38 50 -86 41 -151 -4 -32 -9
-40 -25 -40 -16 0 -21 8 -23 35 -5 76 -13 100 -38 117 -37 24 -48 6 -54 -85
-4 -61 -8 -77 -22 -80 -22 -4 -27 17 -30 111 -2 86 3 96 60 113 54 17 55 17
91 -20z m356 15 c17 -10 41 -40 54 -66 l25 -47 -30 -56 c-51 -98 -105 -106
-168 -26 -52 68 -50 105 9 167 50 52 66 56 110 28z m265 9 c32 -17 60 -86 60
-150 0 -97 -37 -93 -51 5 -8 62 -22 85 -50 85 -28 0 -49 -39 -49 -91 0 -28 -6
-51 -14 -58 -24 -20 -37 21 -34 102 l3 72 45 23 c49 25 63 26 90 12z m-1500
-56 c12 -32 13 -114 1 -133 -5 -8 -16 -11 -25 -8 -26 10 -21 167 5 167 5 0 14
-12 19 -26z m41 -414 c43 -12 81 -47 104 -97 24 -49 11 -67 -49 -71 -43 -3
-47 -1 -67 32 -37 63 -148 69 -179 10 -13 -24 -12 -27 10 -45 14 -10 43 -24
65 -30 117 -33 181 -62 210 -97 27 -32 30 -42 30 -106 0 -80 -15 -108 -81
-155 -32 -23 -45 -25 -143 -26 -100 0 -111 2 -144 25 -47 34 -78 74 -87 114
-11 50 3 66 56 66 42 0 46 -2 60 -35 27 -65 135 -96 188 -54 57 45 23 119 -61
133 -123 21 -209 82 -234 164 -10 35 -9 45 12 86 25 51 50 71 113 92 44 14
136 12 197 -6z m1612 1 c30 -12 42 -43 27 -71 -8 -15 -21 -20 -56 -20 -38 0
-46 4 -56 25 -9 19 -8 29 6 50 17 27 39 31 79 16z m355 0 c8 -5 12 -21 10 -37
-2 -23 -10 -31 -37 -40 -41 -13 -58 -39 -40 -60 21 -26 64 -43 80 -33 21 13
105 11 116 -3 13 -19 50 -118 58 -155 3 -18 16 -44 27 -58 16 -20 23 -23 34
-14 8 6 14 21 14 33 0 11 9 40 20 64 10 23 22 58 26 78 8 43 40 67 86 62 47
-4 47 -35 -1 -154 -22 -54 -45 -118 -51 -141 -6 -23 -14 -45 -19 -47 -5 -3
-12 -21 -15 -39 -3 -18 -15 -51 -26 -72 -11 -22 -20 -45 -20 -51 0 -6 -18 -28
-40 -48 -36 -32 -46 -36 -94 -36 -36 0 -60 5 -70 16 -30 29 -16 61 30 70 36 7
74 48 74 81 0 19 -22 88 -44 138 -7 17 -28 70 -47 118 -18 49 -41 93 -51 98
-13 7 -29 4 -57 -10 -49 -26 -53 -43 -49 -201 3 -133 1 -140 -57 -140 -51 0
-55 11 -55 166 l0 142 -35 26 c-19 15 -35 34 -35 43 0 9 16 31 35 49 19 17 35
41 35 53 0 46 27 90 62 100 42 12 119 13 136 2z m-612 -25 c3 -8 8 -35 12 -62
6 -39 12 -50 37 -64 36 -20 54 -62 36 -83 -6 -8 -25 -17 -41 -21 l-30 -5 0
-96 c0 -102 9 -135 39 -135 26 0 43 -24 39 -57 -3 -24 -9 -29 -45 -36 -55 -11
-102 3 -127 37 -18 23 -22 47 -26 153 -5 116 -7 127 -28 141 -29 19 -30 72 -2
97 11 10 22 33 26 51 5 25 18 42 48 63 48 34 55 36 62 17z m-840 -131 c84 -25
135 -104 136 -209 0 -149 -102 -246 -229 -218 -61 14 -73 3 -73 -71 0 -75 -6
-86 -52 -93 -67 -11 -68 -6 -67 279 1 139 4 263 8 276 9 32 49 43 87 25 26
-13 36 -12 84 6 30 10 55 19 56 20 0 0 23 -7 50 -15z m502 -10 c101 -30 163
-152 133 -261 -22 -80 -85 -142 -159 -156 -186 -34 -316 109 -261 287 38 123
146 172 287 130z m616 -1 c13 -13 16 -46 16 -203 0 -132 -4 -191 -12 -199 -19
-19 -96 -15 -106 6 -5 9 -10 96 -10 192 -1 200 5 220 63 220 18 0 41 -7 49
-16z"></path>
<path d="M800 1360 c-102 -10 -158 -27 -186 -55 -29 -30 -30 -39 -3 -66 17
-17 29 -20 58 -15 195 34 409 33 516 -2 33 -11 76 -23 95 -27 19 -4 40 -11 46
-16 6 -5 30 -16 55 -24 61 -22 99 -6 99 40 0 46 -48 76 -193 119 -161 49 -312
63 -487 46z"></path>
<path d="M880 1143 c-176 -15 -240 -36 -240 -78 0 -31 36 -37 156 -24 193 22
350 -3 490 -76 53 -28 104 -15 104 26 0 24 -55 64 -127 94 -86 35 -293 66
-383 58z"></path>
<path d="M825 934 c-11 -3 -46 -9 -78 -16 -59 -11 -83 -32 -67 -57 7 -12 27
-12 119 -1 170 19 303 0 420 -60 35 -19 47 -21 67 -12 123 57 -277 183 -461
146z"></path>
<path d="M2743 1529 c-16 -16 -5 -39 18 -39 24 0 37 29 18 41 -18 11 -23 11
-36 -2z"></path>
<path d="M3349 1509 c-17 -33 -2 -88 27 -101 48 -22 87 36 65 95 -9 22 -17 27
-45 27 -26 0 -38 -6 -47 -21z"></path>
<path d="M2643 870 c-69 -28 -69 -189 0 -235 33 -21 70 -11 102 27 21 25 25
40 25 95 0 58 -3 67 -29 94 -30 29 -58 35 -98 19z"></path>
<path d="M3123 862 c-6 -4 -21 -30 -33 -57 -26 -60 -21 -98 19 -145 37 -45 87
-47 131 -5 27 26 30 34 30 94 0 57 -3 68 -27 93 -21 22 -36 28 -67 28 -23 0
-46 -4 -53 -8z"></path>
</g>
</svg>